<svg width="57" height="56" viewBox="0 0 57 56" fill="none" xmlns="http://www.w3.org/2000/svg">
<rect x="0.463379" width="56" height="56" rx="8" fill="#F6F8FF"/>
<g clip-path="url(#clip0_227_1145)">
<path d="M18.4634 28C18.4634 26.1867 18.9101 24.5133 19.8034 22.98C20.6967 21.4467 21.9101 20.2333 23.4434 19.34C24.9767 18.4467 26.6501 18 28.4634 18C30.2767 18 31.9501 18.4467 33.4834 19.34C35.0167 20.2333 36.2301 21.4467 37.1234 22.98C38.0167 24.5133 38.4634 26.1867 38.4634 28C38.4634 29.8133 38.0167 31.4867 37.1234 33.02C36.2301 34.5533 35.0167 35.7667 33.4834 36.66C31.9501 37.5533 30.2767 38 28.4634 38C26.6501 38 24.9767 37.5533 23.4434 36.66C21.9101 35.7667 20.6967 34.5533 19.8034 33.02C18.9101 31.4867 18.4634 29.8133 18.4634 28ZM20.1234 28C20.1234 30.08 20.8234 31.9133 22.2234 33.5C22.8634 32.2467 23.8767 31.0533 25.2634 29.92C26.6501 28.7867 28.0034 28.0733 29.3234 27.78C29.1234 27.3133 28.9301 26.8933 28.7434 26.52C26.4501 27.2533 23.9701 27.62 21.3034 27.62C20.7834 27.62 20.3967 27.6133 20.1434 27.6C20.1434 27.6533 20.1401 27.72 20.1334 27.8C20.1267 27.88 20.1234 27.9467 20.1234 28ZM20.3834 25.94C20.6767 25.9667 21.1101 25.98 21.6834 25.98C23.9101 25.98 26.0234 25.68 28.0234 25.08C27.0101 23.28 25.8967 21.78 24.6834 20.58C23.6301 21.1133 22.7267 21.8533 21.9734 22.8C21.2201 23.7467 20.6901 24.7933 20.3834 25.94ZM23.3634 34.58C24.8701 35.7533 26.5701 36.34 28.4634 36.34C29.4501 36.34 30.4301 36.1533 31.4034 35.78C31.1367 33.5 30.6167 31.2933 29.8434 29.16C28.6167 29.4267 27.3801 30.1 26.1334 31.18C24.8867 32.26 23.9634 33.3933 23.3634 34.58ZM26.4234 19.94C27.5967 21.1533 28.6834 22.6667 29.6834 24.48C31.4967 23.72 32.8634 22.7533 33.7834 21.58C32.2367 20.3 30.4634 19.66 28.4634 19.66C27.7834 19.66 27.1034 19.7533 26.4234 19.94ZM30.4034 25.9C30.6034 26.3267 30.8301 26.8667 31.0834 27.52C32.0701 27.4267 33.1434 27.38 34.3034 27.38C35.1301 27.38 35.9501 27.4 36.7634 27.44C36.6567 25.6267 36.0034 24.0133 34.8034 22.6C33.9367 23.8933 32.4701 24.9933 30.4034 25.9ZM31.5834 28.92C32.2634 30.8933 32.7234 32.92 32.9634 35C34.0167 34.32 34.8767 33.4467 35.5434 32.38C36.2101 31.3133 36.6101 30.16 36.7434 28.92C35.7701 28.8533 34.8834 28.82 34.0834 28.82C33.3501 28.82 32.5167 28.8533 31.5834 28.92Z" fill="#0079FF"/>
</g>
<defs>
<clipPath id="clip0_227_1145">
<rect width="20" height="20" fill="white" transform="translate(18.4634 18)"/>
</clipPath>
</defs>
</svg>
