<svg width="57" height="56" viewBox="0 0 57 56" fill="none" xmlns="http://www.w3.org/2000/svg">
<rect x="0.628967" width="56" height="56" rx="8" fill="#F6F8FF"/>
<g clip-path="url(#clip0_227_1154)">
<path d="M26.6993 26.9214C26.6993 26.9214 28.5916 26.7827 28.5916 24.5924C28.5916 22.402 27.0435 21.333 25.0824 21.333H18.6292V33.5736H25.0824C25.0824 33.5736 29.0218 33.6964 29.0218 29.9607C29.0218 29.9608 29.1936 26.9214 26.6993 26.9214ZM24.6179 23.5086H25.0824C25.0824 23.5086 25.9596 23.5086 25.9596 24.7822C25.9596 26.0556 25.4437 26.2403 24.8586 26.2403H21.4726V23.5086H24.6179ZM24.9 31.398H21.4726V28.1269H25.0824C25.0824 28.1269 26.3898 28.11 26.3898 29.8079C26.3898 31.2397 25.4133 31.3872 24.9 31.398ZM34.2757 24.4474C29.5066 24.4474 29.5108 29.1506 29.5108 29.1506C29.5108 29.1506 29.1836 33.8296 34.2757 33.8296C34.2757 33.8296 38.519 34.0689 38.519 30.5747H36.3368C36.3368 30.5747 36.4095 31.8905 34.3485 31.8905C34.3485 31.8905 32.1658 32.0349 32.1658 29.7609H38.5918C38.5918 29.7609 39.295 24.4474 34.2757 24.4474ZM32.1419 28.1269C32.1419 28.1269 32.4083 26.2402 34.3242 26.2402C36.2396 26.2402 36.2156 28.1269 36.2156 28.1269H32.1419ZM36.724 23.5615H31.6076V22.0541H36.724V23.5615Z" fill="#0079FF"/>
</g>
<defs>
<clipPath id="clip0_227_1154">
<rect width="20" height="20" fill="white" transform="translate(18.629 18)"/>
</clipPath>
</defs>
</svg>
