<svg width="614" height="384" viewBox="0 0 614 384" fill="none" xmlns="http://www.w3.org/2000/svg">
<circle cx="227" cy="9" r="9" fill="#F9475D"/>
<g clip-path="url(#clip0_252_2153)">
<path d="M227.846 254.217V113.362C227.846 105.945 233.879 99.9114 241.295 99.9114H520.551C527.966 99.9114 534 105.945 534 113.362V254.217C534 261.634 527.966 267.668 520.551 267.668H241.295C233.879 267.668 227.846 261.634 227.846 254.217ZM532.636 113.362C532.636 106.687 527.225 101.275 520.551 101.275H241.295C234.62 101.275 229.209 106.687 229.209 113.362V254.217C229.209 260.892 234.62 266.304 241.295 266.304H431.241C487.24 266.304 532.636 220.902 532.636 164.897L532.636 113.362Z" fill="#E6E6E6"/>
<path d="M326.229 125.532H169.719C165.078 125.532 161.305 129.306 161.305 133.948V191.448C161.305 196.089 165.078 199.863 169.719 199.863H326.229C330.869 199.863 334.643 196.089 334.643 191.448V133.948C334.643 129.306 330.869 125.532 326.229 125.532Z" fill="white"/>
<path d="M326.229 125.532H169.719C165.078 125.532 161.305 129.306 161.305 133.948V191.448C161.305 196.089 165.078 199.863 169.719 199.863H326.229C330.869 199.863 334.643 196.089 334.643 191.448V133.948C334.643 129.306 330.869 125.532 326.229 125.532ZM333.758 191.448C333.758 195.603 330.383 198.978 326.229 198.978H169.719C165.565 198.978 162.19 195.603 162.19 191.448V133.948C162.19 129.793 165.565 126.417 169.719 126.417H326.229C330.383 126.417 333.758 129.793 333.758 133.948V191.448Z" fill="#3F3D56"/>
<path d="M177.047 151.739H316.146C317.464 151.739 318.533 152.807 318.533 154.125C318.533 155.443 317.464 156.512 316.146 156.512H177.047C175.729 156.512 174.661 155.443 174.661 154.125C174.661 152.807 175.729 151.739 177.047 151.739Z" fill="#0079FF"/>
<path d="M177.047 167.423H227.505C228.823 167.423 229.891 168.492 229.891 169.81C229.891 171.128 228.823 172.197 227.505 172.197H177.047C175.729 172.197 174.661 171.128 174.661 169.81C174.661 168.492 175.729 167.423 177.047 167.423Z" fill="#0079FF"/>
<path d="M480.783 144.447H385.323C383.819 144.447 382.595 143.223 382.595 141.719C382.595 140.215 383.819 138.991 385.323 138.991H480.783C482.287 138.991 483.51 140.215 483.51 141.719C483.51 143.223 482.287 144.447 480.783 144.447Z" fill="#E6E6E6"/>
<path d="M498.88 203.603H365.862V202.921C409.66 209.639 454.043 209.086 498.88 202.921V203.603Z" fill="#E6E6E6"/>
<path d="M480.783 179.226H385.323C383.819 179.226 382.595 178.002 382.595 176.498C382.595 174.994 383.819 173.77 385.323 173.77H480.783C482.287 173.77 483.51 174.994 483.51 176.498C483.51 178.002 482.287 179.226 480.783 179.226Z" fill="#E6E6E6"/>
<path d="M499.562 212.469H366.544V213.15H499.562V212.469Z" fill="#E6E6E6"/>
<path d="M480.783 161.286H385.323C383.819 161.286 382.595 160.062 382.595 158.558C382.595 157.054 383.819 155.83 385.323 155.83H480.783C482.287 155.83 483.51 157.054 483.51 158.558C483.51 160.062 482.287 161.286 480.783 161.286Z" fill="#E6E6E6"/>
<path d="M499.562 222.016C453.647 218.892 409.057 218.395 366.544 222.016V221.334H499.562V222.016Z" fill="#E6E6E6"/>
<path d="M315.986 210.919L310.374 208.26C312.676 211.472 314.659 216.49 315.721 220.482C317.519 216.763 320.417 212.213 323.285 209.495L317.354 211.021C321.009 193.107 334.755 180.248 350.496 180.248V178.884C334.054 178.884 319.717 192.282 315.986 210.919Z" fill="#3F3D56"/>
<path d="M341.814 238.212H306.357C304.854 238.212 303.63 236.989 303.63 235.485C303.63 233.981 304.854 232.757 306.357 232.757H341.814C343.318 232.757 344.541 233.981 344.541 235.485C344.541 236.989 343.318 238.212 341.814 238.212Z" fill="#0079FF"/>
<path d="M251.029 179.016C256.301 179.016 260.575 174.742 260.575 169.469C260.575 164.196 256.301 159.922 251.029 159.922C245.757 159.922 241.483 164.196 241.483 169.469C241.483 174.742 245.757 179.016 251.029 179.016Z" fill="#0079FF"/>
<path d="M255.994 163.879C255.539 163.612 254.845 163.75 254.595 164.245C253.46 166.494 252.325 168.742 251.191 170.99C250.275 169.556 249.104 168.303 247.746 167.254C247.309 166.916 246.6 167.187 246.347 167.621C246.038 168.149 246.275 168.682 246.714 169.02C248.298 170.244 249.519 171.889 250.342 173.705C250.654 174.395 251.782 174.351 252.108 173.705C253.526 170.896 254.943 168.087 256.361 165.278C256.61 164.785 256.491 164.169 255.994 163.879Z" fill="white"/>
<path d="M365.581 151.057C370.853 151.057 375.127 146.782 375.127 141.51C375.127 136.237 370.853 131.962 365.581 131.962C360.309 131.962 356.035 136.237 356.035 141.51C356.035 146.782 360.309 151.057 365.581 151.057Z" fill="#0079FF"/>
<path d="M370.546 135.919C370.091 135.653 369.397 135.791 369.147 136.286C368.012 138.534 366.878 140.782 365.743 143.03C364.828 141.596 363.657 140.344 362.298 139.295C361.861 138.956 361.152 139.228 360.899 139.661C360.59 140.19 360.827 140.722 361.266 141.061C362.85 142.285 364.071 143.93 364.894 145.745C365.206 146.435 366.334 146.392 366.66 145.745C368.078 142.936 369.495 140.127 370.913 137.319C371.162 136.826 371.043 136.21 370.546 135.919Z" fill="white"/>
<path d="M502.634 166.741C507.907 166.741 512.181 162.467 512.181 157.194C512.181 151.921 507.907 147.647 502.634 147.647C497.362 147.647 493.088 151.921 493.088 157.194C493.088 162.467 497.362 166.741 502.634 166.741Z" fill="#0079FF"/>
<path d="M507.6 151.604C507.145 151.338 506.45 151.475 506.2 151.971C505.066 154.219 503.931 156.467 502.796 158.715C501.881 157.281 500.71 156.029 499.352 154.979C498.914 154.641 498.206 154.912 497.952 155.346C497.643 155.874 497.881 156.407 498.319 156.746C499.903 157.969 501.125 159.614 501.947 161.43C502.26 162.12 503.387 162.076 503.714 161.43C505.131 158.621 506.549 155.812 507.967 153.003C508.215 152.51 508.097 151.894 507.6 151.604Z" fill="white"/>
<path d="M288.678 216.918H265.685C264.257 216.918 263.096 215.757 263.096 214.329C260.056 205.442 260.116 196.735 263.096 188.195C263.096 186.767 264.257 185.606 265.685 185.606H288.678C290.106 185.606 291.267 186.767 291.267 188.195V214.329C291.267 215.757 290.106 216.918 288.678 216.918Z" fill="#E6E6E6"/>
<path d="M270.612 186.377C266.887 186.377 263.867 189.397 263.867 193.122V213.775C263.867 215.085 264.929 216.147 266.239 216.147H278.955C285.329 216.147 290.496 210.979 290.496 204.605V188.75C290.496 187.44 289.434 186.377 288.124 186.377H270.612Z" fill="white"/>
<path d="M282.536 193.972H271.771C271.5 193.972 271.279 193.751 271.279 193.48C271.279 193.208 271.5 192.988 271.771 192.988H282.536C282.808 192.988 283.029 193.208 283.029 193.48C283.029 193.751 282.808 193.972 282.536 193.972Z" fill="#E6E6E6"/>
<path d="M282.536 204.469H271.771C271.5 204.469 271.279 204.248 271.279 203.977C271.279 203.705 271.5 203.484 271.771 203.484H282.536C282.808 203.484 283.029 203.705 283.029 203.977C283.029 204.248 282.808 204.469 282.536 204.469Z" fill="#E6E6E6"/>
<path d="M288.313 199.224H265.995C265.723 199.224 265.502 199.003 265.502 198.731C265.502 198.46 265.723 198.239 265.995 198.239H288.313C288.585 198.239 288.805 198.46 288.805 198.731C288.805 199.003 288.585 199.224 288.313 199.224Z" fill="#E6E6E6"/>
<path d="M288.576 208.737H279.264C278.992 208.737 278.771 208.516 278.771 208.245C278.771 207.973 278.992 207.752 279.264 207.752H288.576C288.848 207.752 289.068 207.973 289.068 208.245C289.068 208.516 288.848 208.737 288.576 208.737Z" fill="#E6E6E6"/>
<path d="M130.264 145.42C130.869 142.627 131.047 144.685 132.365 142.151C131.461 145.425 133.129 144.353 135.345 146.92C150.921 149.363 151.903 144.027 157.667 144.191L157.696 144.191C158.965 144.17 159.616 142.651 158.852 141.639C156.964 139.139 154.882 135.283 156.852 132.854C160.342 128.553 157.266 119.732 155.762 121.639C155.762 114.283 146.704 109.459 143.191 110.654C136.698 112.862 130.686 115.841 129.958 122.506C129.844 123.546 129.697 124.581 129.51 125.611C129.13 127.703 127.567 128.258 128.105 130.313L129.788 132.024C130.577 135.039 130.328 138.204 129.246 141.127C128.648 142.742 128.565 144.127 130.264 145.42Z" fill="#2F2E41"/>
<path d="M146.479 135.549C151.871 135.549 156.243 131.178 156.243 125.785C156.243 120.392 151.871 116.021 146.479 116.021C141.087 116.021 136.716 120.392 136.716 125.785C136.716 131.178 141.087 135.549 146.479 135.549Z" fill="#A0616A"/>
<path d="M131.271 348.382L136.299 348.501L139.101 325.91L131.681 325.734L131.271 348.382Z" fill="#A0616A"/>
<path d="M148.521 358.873C148.521 359.723 147.918 360.411 147.174 360.411H137.194C137.194 360.411 136.212 356.463 132.208 354.764L131.932 360.411H126.783L127.407 351.33C127.407 351.33 126.03 346.472 128.89 343.989C131.75 341.505 129.434 341.851 129.434 341.851L130.559 336.231L138.339 337.146L138.396 345.968L142.171 354.726L147.709 357.461C148.202 357.705 148.521 358.26 148.521 358.873Z" fill="#2F2E41"/>
<path d="M136.8 327.886L140.794 330.944L156.362 314.336L150.468 309.824L136.8 327.886Z" fill="#A0616A"/>
<path d="M144.564 346.525C144.064 347.212 143.171 347.413 142.57 346.975L134.504 341.097C134.504 341.097 136.036 337.328 133.8 333.596L130.251 337.998L126.09 334.965L131.942 327.994C131.942 327.994 133.69 323.256 137.463 322.934C141.237 322.611 139.162 321.526 139.162 321.526L143.38 317.646L149.129 322.968L143.98 330.132L141.875 339.433L144.739 344.906C144.994 345.393 144.925 346.029 144.564 346.525Z" fill="#2F2E41"/>
<path d="M122.413 232.87C122.716 234.113 122.158 239.899 122.47 241.889C123.264 246.95 130.517 274.545 129.266 282.411C124.681 311.234 131.022 329.724 131.022 329.724H141.25L146.704 242.436L152.028 249.455L162.446 280.573L144.018 313.709L153.64 321.657L182.369 275.973L161.954 199.552L160.721 194.938L133.138 194.168L134.672 196.468L131.181 199.919C131.181 199.919 131.176 199.928 131.158 199.946C130.62 200.698 118.667 217.517 122.413 232.87Z" fill="#2F2E41"/>
<path d="M131.158 199.946C134.352 201.087 155.94 199.909 161.954 199.552L160.721 194.938L133.138 194.168L134.672 196.468L131.181 199.919C131.181 199.919 131.176 199.928 131.158 199.946Z" fill="#A0616A"/>
<path d="M166.861 162.995L165.867 168.267L165.626 169.532L160.342 180.38L161.036 196.283C161.481 198.144 142.717 193.921 132.969 198.284L125.381 161.991L133.075 145.264L139.096 141.918L140.1 137.904H152.855C153.534 141.085 152.798 142.653 151.478 143.555L154.673 152.077L166.861 162.995Z" fill="#0079FF"/>
<path d="M176.837 131.896C176.679 133.261 176.226 134.478 175.6 135.395L174.918 148.497L168.693 147.99L170.056 134.754C169.656 133.718 169.492 132.43 169.65 131.065C170.01 127.945 171.912 125.603 173.897 125.832C175.881 126.062 177.198 128.777 176.837 131.896Z" fill="#A0616A"/>
<path d="M152.029 145.665L152.841 147.647C152.841 147.647 140.977 146.458 141.23 152.654C141.446 157.94 163.779 178.889 164.846 179.378C168.006 180.827 171.68 178.877 172.251 175.447C177.28 162.472 178.322 150.774 176.024 140.146H169.206L166.985 148.53L166.861 154.908L163.265 162.579L151.477 147.647L152.029 145.665Z" fill="#0079FF"/>
<path d="M112.5 218.492C112.938 217.156 113.039 215.831 112.85 214.711L117.83 202.248L111.831 200.052L107.425 212.931C106.61 213.721 105.906 214.848 105.468 216.183C104.466 219.235 105.228 222.226 107.17 222.864C109.112 223.501 111.498 221.544 112.5 218.492Z" fill="#A0616A"/>
<path d="M141.226 145.672C141.226 145.672 133.86 142.878 129.679 146.291C127.954 147.699 120.328 157.399 119.153 170.456C119.061 171.48 118.364 172.36 117.971 173.317C115.549 179.22 111.38 181.939 109.607 186.988C108.914 188.96 110.185 194.063 109.747 195.765C107.455 204.677 108.282 209.758 108.282 209.758L114.472 211.819L117.83 209.446L123.345 189.303L141.226 145.672Z" fill="#0079FF"/>
<path d="M196.627 130.312H173.634C172.207 130.312 171.045 129.151 171.045 127.723C168.005 118.836 168.065 110.129 171.045 101.589C171.045 100.162 172.207 99 173.634 99H196.627C198.055 99 199.216 100.162 199.216 101.589V127.723C199.216 129.151 198.055 130.312 196.627 130.312Z" fill="#E6E6E6"/>
<path d="M178.561 99.7715C174.836 99.7715 171.817 102.791 171.817 106.516V127.169C171.817 128.479 172.879 129.541 174.189 129.541H186.904C193.278 129.541 198.445 124.373 198.445 117.999V102.144C198.445 100.834 197.383 99.7715 196.073 99.7715H178.561Z" fill="white"/>
<path d="M190.486 107.366H179.72C179.449 107.366 179.228 107.145 179.228 106.874C179.228 106.602 179.449 106.382 179.72 106.382H190.486C190.757 106.382 190.978 106.602 190.978 106.874C190.978 107.145 190.757 107.366 190.486 107.366Z" fill="#E6E6E6"/>
<path d="M190.486 117.863H179.72C179.449 117.863 179.228 117.642 179.228 117.371C179.228 117.099 179.449 116.878 179.72 116.878H190.486C190.757 116.878 190.978 117.099 190.978 117.371C190.978 117.642 190.757 117.863 190.486 117.863Z" fill="#E6E6E6"/>
<path d="M196.262 112.618H173.944C173.672 112.618 173.452 112.397 173.452 112.125C173.452 111.854 173.672 111.633 173.944 111.633H196.262C196.534 111.633 196.754 111.854 196.754 112.125C196.754 112.397 196.534 112.618 196.262 112.618Z" fill="#E6E6E6"/>
<path d="M196.526 122.131H187.213C186.941 122.131 186.721 121.91 186.721 121.639C186.721 121.367 186.941 121.146 187.213 121.146H196.526C196.797 121.146 197.018 121.367 197.018 121.639C197.018 121.91 196.797 122.131 196.526 122.131Z" fill="#E6E6E6"/>
<path d="M203.246 349.162C204.655 349.25 205.433 347.5 204.368 346.48L204.262 346.058C204.276 346.024 204.29 345.991 204.304 345.957C205.728 342.56 210.556 342.583 211.969 345.985C213.223 349.005 214.819 352.03 215.212 355.223C215.388 356.632 215.309 358.068 214.996 359.451C217.933 353.034 219.479 346.026 219.479 338.979C219.479 337.208 219.382 335.438 219.184 333.671C219.021 332.227 218.797 330.791 218.506 329.368C216.934 321.678 213.529 314.353 208.619 308.235C206.258 306.945 204.29 304.927 203.101 302.509C202.673 301.637 202.339 300.699 202.18 299.743C202.449 299.778 203.193 295.687 202.99 295.436C203.365 294.867 204.035 294.585 204.444 294.031C206.477 291.273 209.279 291.755 210.742 295.502C213.866 297.079 213.896 299.694 211.979 302.21C210.759 303.81 210.592 305.976 209.522 307.689C209.632 307.83 209.746 307.966 209.856 308.107C211.875 310.697 213.622 313.481 215.094 316.406C214.678 313.155 215.292 309.24 216.339 306.716C217.531 303.84 219.765 301.418 221.733 298.931C224.096 295.945 228.942 297.248 229.359 301.034C229.363 301.071 229.367 301.107 229.371 301.144C229.078 301.309 228.792 301.484 228.512 301.669C226.917 302.724 227.468 305.197 229.359 305.489L229.401 305.495C229.296 306.548 229.115 307.592 228.851 308.618C231.375 318.381 225.926 321.936 218.145 322.096C217.973 322.184 217.806 322.272 217.634 322.356C218.422 324.576 219.052 326.853 219.519 329.161C219.937 331.2 220.228 333.262 220.391 335.332C220.593 337.944 220.576 340.569 220.356 343.176L220.369 343.084C220.928 340.212 222.487 337.53 224.751 335.671C228.123 332.901 232.887 331.88 236.525 329.653C238.277 328.581 240.521 329.967 240.215 331.997L240.2 332.095C239.658 332.315 239.13 332.57 238.619 332.857C238.327 333.021 238.041 333.197 237.761 333.382C236.166 334.437 236.717 336.91 238.607 337.202L238.65 337.208C238.681 337.213 238.707 337.217 238.738 337.221C237.809 339.428 236.514 341.476 234.893 343.242C233.315 351.765 226.536 352.573 219.285 350.091H219.281C218.488 353.545 217.33 356.919 215.841 360.134H203.554C203.51 359.997 203.471 359.856 203.431 359.72C204.567 359.79 205.712 359.724 206.831 359.517C205.919 358.398 205.008 357.271 204.096 356.152C204.074 356.13 204.056 356.108 204.039 356.086C203.576 355.513 203.109 354.945 202.647 354.373L202.647 354.372C202.618 352.614 202.829 350.862 203.246 349.162Z" fill="#F2F2F2"/>
<path d="M89 361.188C89 361.639 89.3614 362 89.8115 362H238.654C239.104 362 239.466 361.639 239.466 361.188C239.466 360.738 239.104 360.377 238.654 360.377H89.8115C89.3614 360.377 89 360.738 89 361.188Z" fill="#CCCCCC"/>
<path d="M149.126 114.232H147.138C141.323 114.239 131.384 122.464 135.23 128.234C131.946 136.995 131.827 141.553 133.221 143.939C133.734 144.817 134.753 145.217 135.767 145.146C135.903 145.136 136.039 145.133 136.176 145.138C137.159 145.171 138.477 149.792 139.392 150.147L141.821 149.409L145.804 145.427L143.783 139.356L139.872 136.295L140.405 129.207C137.787 123.19 140.635 122.895 142.238 120.954L142.4 127.181L144.695 124.966C146.565 125.014 148.75 125.825 150.203 124.139C152.841 121.052 155.577 124.779 158.693 125.532L159.66 124.767C159.693 123.031 159.436 121.354 158.938 119.853C158.703 119.147 158.103 118.564 158.078 117.862C157.983 115.226 153.002 112.669 149.126 114.232Z" fill="#2F2E41"/>
</g>
<rect x="34.5" y="64.5" width="535" height="319" rx="69.5" stroke="#0079FF"/>
<path d="M610.639 62.3151C587.288 85.3355 542.996 120.062 552.632 74.8046C564.678 18.2329 519.326 74.3974 499.123 99.098C500.353 97.6514 455.872 154.058 487.178 59.019" stroke="#FFC27A" stroke-width="6" stroke-linecap="round" stroke-linejoin="round"/>
<path d="M30.3761 115.232L25.9355 127.443C25.8267 127.736 25.6309 127.989 25.3743 128.168C25.1176 128.346 24.8126 128.442 24.5 128.442C24.1874 128.442 23.8823 128.346 23.6257 128.168C23.3691 127.989 23.1732 127.736 23.0644 127.443L18.6238 115.232C18.5462 115.021 18.4239 114.83 18.2653 114.671C18.1067 114.513 17.9155 114.39 17.705 114.313L5.49333 109.872C5.20029 109.763 4.94755 109.568 4.76907 109.311C4.5906 109.054 4.49493 108.749 4.49493 108.437C4.49493 108.124 4.5906 107.819 4.76907 107.562C4.94755 107.306 5.20029 107.11 5.49333 107.001L17.705 102.561C17.9155 102.483 18.1067 102.361 18.2653 102.202C18.4239 102.043 18.5462 101.852 18.6238 101.642L23.0644 89.43C23.1732 89.137 23.3691 88.8843 23.6257 88.7058C23.8823 88.5273 24.1874 88.4316 24.5 88.4316C24.8126 88.4316 25.1176 88.5273 25.3743 88.7058C25.6309 88.8843 25.8267 89.137 25.9355 89.43L30.3761 101.642C30.4537 101.852 30.576 102.043 30.7346 102.202C30.8933 102.361 31.0844 102.483 31.2949 102.561L43.5066 107.001C43.7997 107.11 44.0524 107.306 44.2309 107.562C44.4093 107.819 44.505 108.124 44.505 108.437C44.505 108.749 44.4093 109.054 44.2309 109.311C44.0524 109.568 43.7997 109.763 43.5066 109.872L31.2949 114.313C31.0844 114.39 30.8933 114.513 30.7346 114.671C30.576 114.83 30.4537 115.021 30.3761 115.232V115.232Z" stroke="#FFC27A" stroke-width="3.0625" stroke-linecap="round" stroke-linejoin="round"/>
<defs>
<clipPath id="clip0_252_2153">
<rect width="445" height="263" fill="white" transform="translate(89 99)"/>
</clipPath>
</defs>
</svg>
