<svg width="620" height="397" viewBox="0 0 620 397" fill="none" xmlns="http://www.w3.org/2000/svg">
<g clip-path="url(#clip0_37_2092)">
<path d="M93.3428 108.41C94.377 97.265 97.2333 86.3654 101.798 76.1465C103.07 73.3027 104.47 70.5215 105.998 67.8029C106.075 67.6607 106.093 67.4943 106.05 67.3388C106.006 67.1833 105.904 67.0508 105.764 66.9693C105.625 66.8878 105.46 66.8636 105.303 66.9019C105.146 66.9402 105.01 67.0379 104.924 67.1745C99.3663 77.0762 95.4728 87.8247 93.3992 98.9901C92.8223 102.108 92.3888 105.248 92.0985 108.41C92.0248 109.208 93.2696 109.203 93.3428 108.41Z" fill="#E6E6E6"/>
<path d="M109.012 69.7999C113.364 69.7999 116.893 66.2693 116.893 61.914C116.893 57.5587 113.364 54.0281 109.012 54.0281C104.66 54.0281 101.131 57.5587 101.131 61.914C101.131 66.2693 104.66 69.7999 109.012 69.7999Z" fill="#E6E6E6"/>
<path d="M94.149 108.62C94.8199 101.389 96.6729 94.3181 99.634 87.6886C100.459 85.8437 101.368 84.0394 102.359 82.2757C102.409 82.1835 102.421 82.0756 102.392 81.9747C102.364 81.8738 102.298 81.7878 102.207 81.7349C102.117 81.6821 102.01 81.6664 101.908 81.6912C101.806 81.716 101.718 81.7794 101.662 81.868C98.0567 88.2918 95.5308 95.2648 94.1855 102.508C93.8113 104.531 93.53 106.568 93.3417 108.62C93.2939 109.137 94.1014 109.134 94.149 108.62Z" fill="#E6E6E6"/>
<path d="M104.314 83.5713C107.138 83.5713 109.427 81.2808 109.427 78.4553C109.427 75.6298 107.138 73.3394 104.314 73.3394C101.491 73.3394 99.2018 75.6298 99.2018 78.4553C99.2018 81.2808 101.491 83.5713 104.314 83.5713Z" fill="#E6E6E6"/>
<path d="M93.1301 108.137C89.215 102.023 86.3299 95.3068 84.59 88.2571C84.1068 86.2945 83.714 84.3128 83.4117 82.3119C83.3942 82.2086 83.3373 82.1161 83.253 82.054C83.1686 81.9918 83.0635 81.9649 82.9597 81.9788C82.8559 81.9928 82.7616 82.0465 82.6966 82.1287C82.6316 82.2109 82.6011 82.3152 82.6115 82.4194C83.7169 89.7035 86.0113 96.7562 89.4027 103.296C90.351 105.121 91.3813 106.9 92.4936 108.634C92.7739 109.071 93.4087 108.571 93.1301 108.137Z" fill="#E6E6E6"/>
<path d="M82.6051 83.2121C85.4286 83.2121 87.7175 80.9216 87.7175 78.0962C87.7175 75.2707 85.4286 72.9802 82.6051 72.9802C79.7815 72.9802 77.4926 75.2707 77.4926 78.0962C77.4926 80.9216 79.7815 83.2121 82.6051 83.2121Z" fill="#E6E6E6"/>
<path d="M77.4352 112.663V102.611C77.4363 101.612 77.8335 100.654 78.5397 99.9472C79.2459 99.2405 80.2033 98.843 81.202 98.8419H104.64C105.639 98.843 106.596 99.2405 107.302 99.9472C108.009 100.654 108.406 101.612 108.407 102.611V112.663C108.406 113.662 108.009 114.62 107.302 115.327C106.596 116.034 105.639 116.431 104.64 116.432H81.202C80.2033 116.431 79.2459 116.034 78.5397 115.327C77.8335 114.62 77.4363 113.662 77.4352 112.663Z" fill="#F2F2F2"/>
<path d="M103.803 48.5833H93.7581C92.7594 48.5822 91.802 48.1847 91.0958 47.4781C90.3896 46.7714 89.9924 45.8133 89.9913 44.8139V3.7694C89.9924 2.77004 90.3896 1.81193 91.0958 1.10527C91.802 0.398619 92.7594 0.00112626 93.7581 0H103.803C104.802 0.00112626 105.759 0.398619 106.465 1.10527C107.171 1.81193 107.569 2.77004 107.57 3.7694V44.8139C107.569 45.8133 107.171 46.7714 106.465 47.4781C105.759 48.1847 104.802 48.5822 103.803 48.5833Z" fill="#F2F2F2"/>
<path d="M107.151 7.95764H90.4098V11.3082H107.151V7.95764Z" fill="#CCCCCC"/>
<path d="M107.151 33.9246H90.4098V37.2751H107.151V33.9246Z" fill="#CCCCCC"/>
<path d="M128.915 48.5833H118.87C117.872 48.5822 116.914 48.1847 116.208 47.4781C115.502 46.7714 115.105 45.8133 115.103 44.8139V3.7694C115.105 2.77004 115.502 1.81193 116.208 1.10527C116.914 0.398619 117.872 0.00112626 118.87 0H128.915C129.914 0.00112626 130.871 0.398619 131.578 1.10527C132.284 1.81193 132.681 2.77004 132.682 3.7694V44.8139C132.681 45.8133 132.284 46.7714 131.578 47.4781C130.871 48.1847 129.914 48.5822 128.915 48.5833Z" fill="#F2F2F2"/>
<path d="M132.264 7.95764H115.522V11.3082H132.264V7.95764Z" fill="#CCCCCC"/>
<path d="M132.264 33.9246H115.522V37.2751H132.264V33.9246Z" fill="#CCCCCC"/>
<path d="M154.027 48.5833H143.983C142.984 48.5822 142.026 48.1847 141.32 47.4781C140.614 46.7714 140.217 45.8133 140.216 44.8139V3.7694C140.217 2.77004 140.614 1.81193 141.32 1.10527C142.026 0.398619 142.984 0.00112626 143.983 0H154.027C155.026 0.00112626 155.984 0.398619 156.69 1.10527C157.396 1.81193 157.793 2.77004 157.794 3.7694V44.8139C157.793 45.8133 157.396 46.7714 156.69 47.4781C155.984 48.1847 155.026 48.5822 154.027 48.5833Z" fill="#F2F2F2"/>
<path d="M157.376 7.95764H140.634V11.3082H157.376V7.95764Z" fill="#CCCCCC"/>
<path d="M157.376 33.9246H140.634V37.2751H157.376V33.9246Z" fill="#CCCCCC"/>
<path d="M167.421 116.432H157.376C156.377 116.431 155.42 116.034 154.713 115.327C154.007 114.621 153.61 113.662 153.609 112.663V71.6185C153.61 70.6192 154.007 69.661 154.713 68.9544C155.42 68.2477 156.377 67.8502 157.376 67.8491H167.421C168.419 67.8502 169.377 68.2477 170.083 68.9544C170.789 69.661 171.186 70.6192 171.187 71.6185V112.663C171.186 113.662 170.789 114.621 170.083 115.327C169.377 116.034 168.419 116.431 167.421 116.432Z" fill="#F2F2F2"/>
<path d="M170.769 75.8068H154.027V79.1573H170.769V75.8068Z" fill="#CCCCCC"/>
<path d="M170.769 101.774H154.027V105.124H170.769V101.774Z" fill="#CCCCCC"/>
<path d="M192.533 116.432H182.488C181.489 116.431 180.532 116.034 179.826 115.327C179.119 114.621 178.722 113.662 178.721 112.663V71.6185C178.722 70.6192 179.119 69.661 179.826 68.9544C180.532 68.2477 181.489 67.8502 182.488 67.8491H192.533C193.531 67.8502 194.489 68.2477 195.195 68.9544C195.901 69.661 196.298 70.6192 196.3 71.6185V112.663C196.298 113.662 195.901 114.621 195.195 115.327C194.489 116.034 193.531 116.431 192.533 116.432Z" fill="#F2F2F2"/>
<path d="M195.881 75.8068H179.14V79.1573H195.881V75.8068Z" fill="#CCCCCC"/>
<path d="M195.881 101.774H179.14V105.124H195.881V101.774Z" fill="#CCCCCC"/>
<path d="M217.645 116.432H207.6C206.601 116.431 205.644 116.034 204.938 115.327C204.232 114.621 203.834 113.662 203.833 112.663V71.6185C203.834 70.6192 204.232 69.661 204.938 68.9544C205.644 68.2477 206.601 67.8502 207.6 67.8491H217.645C218.644 67.8502 219.601 68.2477 220.307 68.9544C221.014 69.661 221.411 70.6192 221.412 71.6185V112.663C221.411 113.662 221.014 114.621 220.307 115.327C219.601 116.034 218.644 116.431 217.645 116.432Z" fill="#F2F2F2"/>
<path d="M220.993 75.8068H204.252V79.1573H220.993V75.8068Z" fill="#CCCCCC"/>
<path d="M220.993 101.774H204.252V105.124H220.993V101.774Z" fill="#CCCCCC"/>
<path d="M101.292 184.282H91.2469C90.2482 184.28 89.2908 183.883 88.5846 183.176C87.8784 182.47 87.4812 181.512 87.4801 180.512V139.468C87.4812 138.468 87.8784 137.51 88.5846 136.804C89.2908 136.097 90.2482 135.699 91.2469 135.698H101.292C102.29 135.699 103.248 136.097 103.954 136.804C104.66 137.51 105.057 138.468 105.059 139.468V180.512C105.057 181.512 104.66 182.47 103.954 183.176C103.248 183.883 102.29 184.28 101.292 184.282Z" fill="#F2F2F2"/>
<path d="M104.64 143.656H87.8986V147.006H104.64V143.656Z" fill="#CCCCCC"/>
<path d="M104.64 169.623H87.8986V172.973H104.64V169.623Z" fill="#CCCCCC"/>
<path d="M126.404 184.282H116.359C115.36 184.28 114.403 183.883 113.697 183.176C112.991 182.47 112.593 181.512 112.592 180.512V139.468C112.593 138.468 112.991 137.51 113.697 136.804C114.403 136.097 115.36 135.699 116.359 135.698H126.404C127.403 135.699 128.36 136.097 129.066 136.804C129.773 137.51 130.17 138.468 130.171 139.468V180.512C130.17 181.512 129.773 182.47 129.066 183.176C128.36 183.883 127.403 184.28 126.404 184.282Z" fill="#F2F2F2"/>
<path d="M129.752 143.656H113.011V147.006H129.752V143.656Z" fill="#CCCCCC"/>
<path d="M129.752 169.623H113.011V172.973H129.752V169.623Z" fill="#CCCCCC"/>
<path d="M151.516 184.282H141.471C140.473 184.28 139.515 183.883 138.809 183.176C138.103 182.47 137.706 181.512 137.704 180.512V139.468C137.706 138.468 138.103 137.51 138.809 136.804C139.515 136.097 140.473 135.699 141.471 135.698H151.516C152.515 135.699 153.472 136.097 154.179 136.804C154.885 137.51 155.282 138.468 155.283 139.468V180.512C155.282 181.512 154.885 182.47 154.179 183.176C153.472 183.883 152.515 184.28 151.516 184.282Z" fill="#F2F2F2"/>
<path d="M154.865 143.656H138.123V147.006H154.865V143.656Z" fill="#CCCCCC"/>
<path d="M154.865 169.623H138.123V172.973H154.865V169.623Z" fill="#CCCCCC"/>
<path d="M179.14 48.5833H169.095C168.096 48.5822 167.139 48.1847 166.432 47.4781C165.726 46.7714 165.329 45.8133 165.328 44.8139V3.7694C165.329 2.77004 165.726 1.81193 166.432 1.10527C167.139 0.398619 168.096 0.00112626 169.095 0H179.14C180.138 0.00112626 181.096 0.398619 181.802 1.10527C182.508 1.81193 182.905 2.77004 182.906 3.7694V44.8139C182.905 45.8133 182.508 46.7714 181.802 47.4781C181.096 48.1847 180.138 48.5822 179.14 48.5833Z" fill="#F2F2F2"/>
<path d="M182.488 7.95764H165.746V11.3082H182.488V7.95764Z" fill="#CCCCCC"/>
<path d="M182.488 33.9246H165.746V37.2751H182.488V33.9246Z" fill="#CCCCCC"/>
<path d="M204.252 48.5833H194.207C193.208 48.5822 192.251 48.1847 191.545 47.4781C190.839 46.7714 190.441 45.8133 190.44 44.8139V3.7694C190.441 2.77004 190.839 1.81193 191.545 1.10527C192.251 0.398619 193.208 0.00112626 194.207 0H204.252C205.251 0.00112626 206.208 0.398619 206.914 1.10527C207.62 1.81193 208.018 2.77004 208.019 3.7694V44.8139C208.018 45.8133 207.62 46.7714 206.914 47.4781C206.208 48.1847 205.251 48.5822 204.252 48.5833Z" fill="#F2F2F2"/>
<path d="M207.6 7.95764H190.859V11.3082H207.6V7.95764Z" fill="#CCCCCC"/>
<path d="M207.6 33.9246H190.859V37.2751H207.6V33.9246Z" fill="#CCCCCC"/>
<path d="M229.364 48.5833H219.319C218.321 48.5822 217.363 48.1847 216.657 47.4781C215.951 46.7714 215.553 45.8133 215.552 44.8139V3.7694C215.553 2.77004 215.951 1.81193 216.657 1.10527C217.363 0.398619 218.321 0.00112626 219.319 0H229.364C230.363 0.00112626 231.32 0.398619 232.026 1.10527C232.733 1.81193 233.13 2.77004 233.131 3.7694V44.8139C233.13 45.8133 232.733 46.7714 232.026 47.4781C231.32 48.1847 230.363 48.5822 229.364 48.5833Z" fill="#F2F2F2"/>
<path d="M232.712 7.95764H215.971V11.3082H232.712V7.95764Z" fill="#CCCCCC"/>
<path d="M232.712 33.9246H215.971V37.2751H232.712V33.9246Z" fill="#CCCCCC"/>
<path d="M254.476 48.5833H244.431C243.433 48.5822 242.475 48.1847 241.769 47.4781C241.063 46.7714 240.666 45.8133 240.665 44.8139V3.7694C240.666 2.77004 241.063 1.81193 241.769 1.10527C242.475 0.398619 243.433 0.00112626 244.431 0H254.476C255.475 0.00112626 256.432 0.398619 257.139 1.10527C257.845 1.81193 258.242 2.77004 258.243 3.7694V44.8139C258.242 45.8133 257.845 46.7714 257.139 47.4781C256.432 48.1847 255.475 48.5822 254.476 48.5833Z" fill="#F2F2F2"/>
<path d="M257.825 7.95764H241.083V11.3082H257.825V7.95764Z" fill="#CCCCCC"/>
<path d="M257.825 33.9246H241.083V37.2751H257.825V33.9246Z" fill="#CCCCCC"/>
<path d="M292.095 49.8398H53.5291C53.3071 49.8398 53.0942 49.7516 52.9372 49.5945C52.7803 49.4374 52.692 49.2244 52.692 49.0022C52.692 48.78 52.7803 48.567 52.9372 48.4099C53.0942 48.2528 53.3071 48.1646 53.5291 48.1646H292.095C292.317 48.1646 292.53 48.2528 292.687 48.4099C292.844 48.567 292.932 48.78 292.932 49.0022C292.932 49.2244 292.844 49.4374 292.687 49.5945C292.53 49.7516 292.317 49.8398 292.095 49.8398Z" fill="#CCCCCC"/>
<path d="M292.095 117.689H53.5291C53.3071 117.689 53.0942 117.601 52.9372 117.444C52.7803 117.287 52.692 117.073 52.692 116.851C52.692 116.629 52.7803 116.416 52.9372 116.259C53.0942 116.102 53.3071 116.014 53.5291 116.014H292.095C292.317 116.014 292.53 116.102 292.687 116.259C292.844 116.416 292.932 116.629 292.932 116.851C292.932 117.073 292.844 117.287 292.687 117.444C292.53 117.601 292.317 117.689 292.095 117.689Z" fill="#CCCCCC"/>
<path d="M292.095 185.538H53.5291C53.3071 185.538 53.0942 185.45 52.9372 185.293C52.7803 185.136 52.692 184.923 52.692 184.7C52.692 184.478 52.7803 184.265 52.9372 184.108C53.0942 183.951 53.3071 183.863 53.5291 183.863H292.095C292.317 183.863 292.53 183.951 292.687 184.108C292.844 184.265 292.932 184.478 292.932 184.7C292.932 184.923 292.844 185.136 292.687 185.293C292.53 185.45 292.317 185.538 292.095 185.538Z" fill="#CCCCCC"/>
<path d="M277.967 317.033C277.967 310.557 253.607 305.306 223.557 305.306C193.508 305.306 169.147 310.557 169.147 317.033C169.147 321.184 179.163 324.829 194.26 326.913V391.165C194.26 392.609 194.833 393.994 195.853 395.015C196.874 396.036 198.258 396.609 199.701 396.609C201.144 396.609 202.528 396.036 203.548 395.015C204.568 393.994 205.142 392.609 205.142 391.165V328.07C210.894 328.516 217.092 328.76 223.557 328.76C230.022 328.76 236.22 328.516 241.973 328.07V391.165C241.973 392.609 242.546 393.994 243.567 395.015C244.587 396.036 245.971 396.609 247.414 396.609C248.857 396.609 250.241 396.036 251.261 395.015C252.282 393.994 252.855 392.609 252.855 391.165V326.913C267.952 324.829 277.967 321.184 277.967 317.033Z" fill="#CCCCCC"/>
<path d="M267.498 386.075H277.76L282.642 346.465H267.496L267.498 386.075Z" fill="#A0616A"/>
<path d="M297.552 395.61L265.299 395.611L265.299 383.141L285.09 383.14C288.395 383.14 291.565 384.454 293.902 386.792C296.239 389.131 297.552 392.302 297.552 395.61Z" fill="#2F2E41"/>
<path d="M283.518 380.344L293.309 377.269L286.117 338.013L271.666 342.55L283.518 380.344Z" fill="#A0616A"/>
<path d="M315.046 380.437L284.273 390.101L280.541 378.203L299.425 372.273C302.578 371.283 305.996 371.586 308.925 373.117C311.855 374.649 314.056 377.281 315.046 380.437Z" fill="#2F2E41"/>
<path d="M276.652 362.112L257.879 312.799C253.667 313.789 218.347 321.61 206.517 309.006C202.463 304.686 201.672 298.428 204.167 290.404L211.07 281.722L211.285 281.734C213.895 281.871 275.267 285.313 279.474 303.838C283.021 319.455 289.499 348.573 291.4 357.125C291.593 358.011 291.461 358.937 291.028 359.734C290.596 360.531 289.892 361.146 289.044 361.467L281.495 364.3C281.074 364.458 280.628 364.539 280.179 364.539C279.415 364.539 278.668 364.307 278.039 363.874C277.409 363.441 276.925 362.826 276.652 362.112Z" fill="#2F2E41"/>
<path d="M265.77 367.976L246.997 318.663C242.785 319.653 207.465 327.473 195.635 314.87C191.581 310.55 190.79 304.291 193.285 296.267L200.188 287.586L200.403 287.597C203.013 287.735 264.385 291.177 268.592 309.701C272.139 325.319 278.617 354.436 280.518 362.988C280.711 363.874 280.579 364.8 280.147 365.597C279.714 366.394 279.01 367.009 278.163 367.33L270.613 370.163C270.192 370.322 269.746 370.403 269.297 370.403C268.533 370.403 267.786 370.171 267.157 369.737C266.527 369.304 266.044 368.69 265.77 367.976Z" fill="#2F2E41"/>
<path d="M291.14 249.765C290.863 250.137 290.615 250.529 290.399 250.939L249.115 255.292L243.172 247.138L229.703 254.505L241.375 274.291L292.008 261.373C293.285 262.619 294.911 263.446 296.67 263.745C298.429 264.044 300.237 263.8 301.854 263.045C303.471 262.291 304.82 261.062 305.722 259.521C306.623 257.981 307.035 256.202 306.902 254.422C306.769 252.641 306.097 250.944 304.977 249.555C303.856 248.166 302.339 247.151 300.628 246.646C298.917 246.14 297.093 246.168 295.398 246.725C293.703 247.282 292.218 248.343 291.14 249.765Z" fill="#A0616A"/>
<path d="M193.019 298.871C192.454 298.464 192.013 297.908 191.744 297.265C191.475 296.622 191.39 295.917 191.497 295.228C193.826 279.864 191.146 257.853 188.488 242.094C187.944 238.897 188.155 235.616 189.106 232.516C190.057 229.415 191.72 226.58 193.962 224.238C196.205 221.896 198.964 220.112 202.02 219.029C205.075 217.947 208.341 217.595 211.557 218.002C214.355 218.372 217.126 218.919 219.855 219.639C224.387 220.781 228.396 223.433 231.223 227.158C234.05 230.882 235.526 235.459 235.409 240.135C235.012 255.341 238.097 274.315 239.443 281.766C239.534 282.278 239.52 282.804 239.4 283.309C239.28 283.815 239.057 284.291 238.745 284.707C238.439 285.119 238.05 285.462 237.604 285.714C237.158 285.967 236.664 286.123 236.154 286.173C221.247 287.695 205.172 294.97 196.916 299.17C196.386 299.444 195.798 299.588 195.2 299.59C194.416 299.587 193.652 299.336 193.019 298.871Z" fill="#0079FF"/>
<path d="M233.258 259.241C232.797 259.06 232.377 258.789 232.022 258.444C231.666 258.1 231.383 257.688 231.187 257.233L222.874 238.015C222.371 236.854 222.101 235.605 222.08 234.339C222.059 233.074 222.288 231.817 222.753 230.64C223.218 229.463 223.91 228.389 224.79 227.48C225.67 226.571 226.721 225.844 227.881 225.341C229.042 224.838 230.29 224.57 231.555 224.55C232.82 224.53 234.076 224.76 235.252 225.226C236.427 225.693 237.5 226.386 238.408 227.268C239.316 228.149 240.041 229.201 240.542 230.363L248.856 249.58C249.251 250.498 249.267 251.535 248.899 252.464C248.532 253.393 247.811 254.138 246.895 254.536L236.141 259.195C235.687 259.393 235.199 259.499 234.704 259.507C234.209 259.515 233.718 259.424 233.258 259.241Z" fill="#0079FF"/>
<path d="M251.798 248.09C251.52 248.461 251.273 248.854 251.057 249.264L209.772 253.617L203.829 245.463L190.36 252.83L202.033 272.616L252.665 259.697C253.943 260.944 255.569 261.771 257.328 262.07C259.087 262.369 260.895 262.125 262.512 261.37C264.129 260.616 265.478 259.386 266.379 257.846C267.281 256.305 267.693 254.527 267.56 252.746C267.427 250.966 266.755 249.269 265.634 247.88C264.514 246.49 262.997 245.476 261.286 244.97C259.575 244.465 257.751 244.493 256.056 245.05C254.361 245.607 252.876 246.668 251.798 248.09Z" fill="#A0616A"/>
<path d="M193.915 260.078C193.455 259.897 193.035 259.627 192.679 259.282C192.324 258.937 192.04 258.525 191.845 258.07L183.532 238.853C183.028 237.692 182.758 236.443 182.738 235.177C182.717 233.912 182.946 232.654 183.411 231.477C183.876 230.3 184.568 229.227 185.448 228.317C186.328 227.408 187.378 226.682 188.539 226.179C189.7 225.676 190.948 225.407 192.213 225.388C193.477 225.368 194.733 225.598 195.909 226.064C197.085 226.53 198.157 227.224 199.065 228.105C199.973 228.987 200.698 230.038 201.2 231.2L209.513 250.418C209.909 251.335 209.924 252.372 209.557 253.301C209.189 254.231 208.469 254.976 207.553 255.374L196.798 260.033C196.345 260.231 195.856 260.337 195.361 260.345C194.867 260.352 194.375 260.262 193.915 260.078Z" fill="#0079FF"/>
<path d="M210.027 211.465C221.382 211.465 230.586 202.254 230.586 190.891C230.586 179.529 221.382 170.318 210.027 170.318C198.672 170.318 189.468 179.529 189.468 190.891C189.468 202.254 198.672 211.465 210.027 211.465Z" fill="#A0616A"/>
<path d="M195.328 205.011C195.239 204.753 195.211 204.478 195.246 204.207C195.28 203.937 195.376 203.677 195.526 203.449C195.676 203.222 195.876 203.031 196.111 202.892C196.346 202.754 196.61 202.671 196.881 202.65C197.438 202.68 197.983 202.823 198.483 203.07C198.983 203.317 199.428 203.663 199.791 204.087C200.535 204.945 201.401 205.689 202.362 206.295C203.357 206.797 204.705 206.726 205.272 205.769C205.805 204.871 205.44 203.668 205.118 202.625C204.297 199.971 203.839 197.218 203.753 194.441C203.66 191.342 204.097 188.107 205.812 185.69C208.025 182.57 211.983 181.385 215.728 181.471C219.473 181.557 223.157 182.714 226.867 183.445C228.148 183.698 229.653 183.827 230.509 182.833C231.42 181.777 231.086 180.068 230.698 178.642C229.693 174.942 228.627 171.116 226.291 168.128C223.765 165.022 220.158 162.99 216.195 162.44C212.39 161.968 208.528 162.407 204.926 163.72C199.057 165.571 193.893 169.171 190.124 174.039C186.239 179.215 184.56 185.72 185.455 192.132C186.329 197.716 189.286 202.761 193.73 206.25L195.328 205.011Z" fill="#2F2E41"/>
<path d="M116.827 254.54C117.861 243.395 120.718 232.495 125.282 222.276C126.554 219.433 127.954 216.651 129.482 213.933C129.559 213.791 129.578 213.624 129.534 213.469C129.49 213.313 129.388 213.181 129.249 213.099C129.109 213.018 128.944 212.994 128.787 213.032C128.63 213.07 128.494 213.168 128.408 213.304C122.851 223.206 118.957 233.955 116.883 245.12C116.307 248.238 115.873 251.378 115.583 254.54C115.509 255.338 116.754 255.333 116.827 254.54Z" fill="#3F3D56"/>
<path d="M132.496 215.93C136.849 215.93 140.377 212.399 140.377 208.044C140.377 203.689 136.849 200.158 132.496 200.158C128.144 200.158 124.616 203.689 124.616 208.044C124.616 212.399 128.144 215.93 132.496 215.93Z" fill="#0079FF"/>
<path d="M117.633 254.749C118.304 247.519 120.157 240.448 123.118 233.818C123.944 231.974 124.852 230.169 125.843 228.406C125.893 228.313 125.905 228.205 125.877 228.105C125.848 228.004 125.782 227.918 125.692 227.865C125.601 227.812 125.494 227.796 125.392 227.821C125.29 227.846 125.202 227.909 125.146 227.998C121.541 234.422 119.015 241.395 117.67 248.638C117.296 250.661 117.014 252.698 116.826 254.749C116.778 255.267 117.586 255.264 117.633 254.749Z" fill="#3F3D56"/>
<path d="M127.798 229.701C130.622 229.701 132.911 227.411 132.911 224.585C132.911 221.76 130.622 219.469 127.798 219.469C124.975 219.469 122.686 221.76 122.686 224.585C122.686 227.411 124.975 229.701 127.798 229.701Z" fill="#0079FF"/>
<path d="M116.614 254.267C112.699 248.153 109.814 241.437 108.074 234.387C107.591 232.424 107.198 230.443 106.896 228.442C106.878 228.338 106.821 228.246 106.737 228.184C106.653 228.122 106.548 228.095 106.444 228.109C106.34 228.123 106.246 228.176 106.181 228.259C106.116 228.341 106.085 228.445 106.096 228.549C107.201 235.833 109.495 242.886 112.887 249.425C113.835 251.251 114.865 253.03 115.978 254.763C116.258 255.201 116.893 254.701 116.614 254.267Z" fill="#3F3D56"/>
<path d="M106.089 229.342C108.913 229.342 111.202 227.052 111.202 224.226C111.202 221.401 108.913 219.11 106.089 219.11C103.266 219.11 100.977 221.401 100.977 224.226C100.977 227.052 103.266 229.342 106.089 229.342Z" fill="#0079FF"/>
<path d="M100.919 258.793V248.741C100.92 247.742 101.318 246.784 102.024 246.077C102.73 245.371 103.688 244.973 104.686 244.972H128.124C129.123 244.973 130.08 245.371 130.787 246.077C131.493 246.784 131.89 247.742 131.891 248.741V258.793C131.89 259.792 131.493 260.751 130.787 261.457C130.08 262.164 129.123 262.561 128.124 262.562H104.686C103.688 262.561 102.73 262.164 102.024 261.457C101.318 260.751 100.92 259.792 100.919 258.793Z" fill="#CCCCCC"/>
<path d="M311.032 255.885H244.903C243.285 255.885 241.973 257.198 241.973 258.817C241.973 260.436 243.285 261.749 244.903 261.749H311.032C312.65 261.749 313.961 260.436 313.961 258.817C313.961 257.198 312.65 255.885 311.032 255.885Z" fill="#CCCCCC"/>
<path d="M355.396 261.749H280.897C279.454 261.747 278.071 261.173 277.051 260.152C276.031 259.132 275.458 257.748 275.456 256.304V215.26C275.458 213.816 276.031 212.432 277.051 211.411C278.071 210.391 279.454 209.817 280.897 209.815H355.396C356.839 209.817 358.222 210.391 359.242 211.411C360.262 212.432 360.836 213.816 360.837 215.26V256.304C360.836 257.748 360.262 259.132 359.242 260.152C358.222 261.173 356.839 261.747 355.396 261.749Z" fill="#CCCCCC"/>
<path d="M318.147 240.808C320.92 240.808 323.169 238.558 323.169 235.782C323.169 233.006 320.92 230.756 318.147 230.756C315.373 230.756 313.124 233.006 313.124 235.782C313.124 238.558 315.373 240.808 318.147 240.808Z" fill="white"/>
<path d="M544.994 317.033C544.994 310.557 520.634 305.306 490.584 305.306C460.534 305.306 436.174 310.557 436.174 317.033C436.174 321.184 446.189 324.829 461.286 326.913V391.165C461.286 392.609 461.86 393.994 462.88 395.015C463.9 396.036 465.284 396.609 466.727 396.609C468.17 396.609 469.554 396.036 470.575 395.015C471.595 393.994 472.168 392.609 472.168 391.165V328.07C477.921 328.516 484.119 328.76 490.584 328.76C497.049 328.76 503.247 328.516 509 328.07V391.165C509 392.609 509.573 393.994 510.593 395.015C511.614 396.036 512.997 396.609 514.44 396.609C515.884 396.609 517.267 396.036 518.288 395.015C519.308 393.994 519.881 392.609 519.881 391.165V326.913C534.979 324.829 544.994 321.184 544.994 317.033Z" fill="#CCCCCC"/>
<path d="M496.6 209.696C509.545 209.696 520.038 199.195 520.038 186.241C520.038 173.288 509.545 162.787 496.6 162.787C483.656 162.787 473.162 173.288 473.162 186.241C473.162 199.195 483.656 209.696 496.6 209.696Z" fill="#2F2E41"/>
<path d="M438.273 386.913H428.01L423.128 347.302H438.274L438.273 386.913Z" fill="#FFB8B8"/>
<path d="M420.68 383.978H440.471V396.448H408.218C408.218 394.81 408.541 393.189 409.167 391.676C409.793 390.163 410.711 388.788 411.868 387.63C413.025 386.472 414.399 385.554 415.911 384.927C417.423 384.301 419.043 383.978 420.68 383.978Z" fill="#2F2E41"/>
<path d="M422.253 381.181L412.461 378.107L419.654 338.85L434.105 343.388L422.253 381.181Z" fill="#FFB8B8"/>
<path d="M406.345 373.11L425.229 379.04L421.498 390.938L390.725 381.274C391.215 379.712 392.007 378.261 393.058 377.006C394.108 375.75 395.395 374.713 396.845 373.955C398.296 373.197 399.881 372.732 401.511 372.587C403.142 372.442 404.784 372.62 406.345 373.11Z" fill="#2F2E41"/>
<path d="M425.592 365.377C425.142 365.377 424.696 365.296 424.276 365.137L416.726 362.304C415.878 361.983 415.174 361.368 414.742 360.571C414.31 359.774 414.178 358.849 414.37 357.962C416.271 349.41 422.749 320.293 426.296 304.676C430.503 286.151 491.875 282.709 494.485 282.571L494.7 282.56L501.604 291.241C504.099 299.265 503.308 305.524 499.254 309.844C487.424 322.448 452.104 314.627 447.892 313.637L429.119 362.95C428.845 363.664 428.361 364.278 427.732 364.711C427.102 365.145 426.356 365.377 425.592 365.377Z" fill="#2F2E41"/>
<path d="M436.474 371.24C436.024 371.24 435.578 371.159 435.158 371.001L427.608 368.168C426.76 367.847 426.056 367.232 425.624 366.435C425.192 365.638 425.06 364.712 425.252 363.826C427.153 355.274 433.631 326.157 437.178 310.539C441.385 292.014 502.757 288.572 505.367 288.435L505.582 288.423L512.486 297.105C514.981 305.129 514.19 311.387 510.136 315.707C498.306 328.31 462.986 320.49 458.774 319.5L440.001 368.813C439.727 369.527 439.243 370.142 438.614 370.575C437.984 371.008 437.238 371.24 436.474 371.24Z" fill="#2F2E41"/>
<path d="M414.63 250.603C414.908 250.974 415.155 251.367 415.371 251.777L456.656 256.13L462.599 247.976L476.068 255.343L464.395 275.129L413.763 262.21C412.485 263.456 410.859 264.284 409.1 264.583C407.341 264.882 405.533 264.638 403.916 263.883C402.299 263.128 400.95 261.899 400.049 260.359C399.147 258.818 398.735 257.04 398.868 255.259C399.001 253.479 399.673 251.782 400.794 250.392C401.914 249.003 403.431 247.989 405.142 247.483C406.853 246.978 408.677 247.005 410.372 247.563C412.067 248.12 413.552 249.18 414.63 250.603Z" fill="#FFB8B8"/>
<path d="M510.57 300.428C509.973 300.426 509.385 300.282 508.854 300.008C500.599 295.808 484.524 288.533 469.617 287.011C469.107 286.961 468.613 286.804 468.166 286.552C467.72 286.299 467.332 285.956 467.026 285.545C466.714 285.129 466.491 284.653 466.371 284.147C466.251 283.641 466.236 283.116 466.328 282.604C467.673 275.153 470.759 256.179 470.361 240.972C470.244 236.296 471.72 231.72 474.547 227.995C477.374 224.271 481.383 221.619 485.916 220.477C488.644 219.757 491.416 219.21 494.213 218.84C497.429 218.432 500.695 218.784 503.751 219.867C506.806 220.95 509.566 222.734 511.808 225.076C514.051 227.417 515.714 230.252 516.664 233.353C517.615 236.454 517.827 239.735 517.283 242.932C514.624 258.691 511.945 280.701 514.274 296.066C514.381 296.755 514.295 297.459 514.026 298.102C513.758 298.745 513.316 299.301 512.751 299.709C512.119 300.173 511.355 300.425 510.57 300.428Z" fill="#0079FF"/>
<path d="M471.125 260.345C470.611 260.344 470.102 260.238 469.63 260.033L458.875 255.374C457.959 254.976 457.239 254.231 456.871 253.302C456.504 252.372 456.519 251.335 456.915 250.418L465.228 231.2C465.73 230.038 466.455 228.987 467.363 228.105C468.271 227.224 469.343 226.53 470.519 226.064C471.695 225.598 472.951 225.368 474.215 225.388C475.48 225.407 476.728 225.676 477.889 226.179C479.05 226.682 480.1 227.408 480.98 228.318C481.86 229.227 482.552 230.301 483.017 231.478C483.482 232.655 483.711 233.912 483.69 235.177C483.67 236.443 483.4 237.692 482.896 238.853L474.583 258.07C474.291 258.745 473.808 259.32 473.193 259.724C472.579 260.128 471.86 260.344 471.125 260.345Z" fill="#0079FF"/>
<path d="M495.743 212.302C507.098 212.302 516.303 203.091 516.303 191.729C516.303 180.367 507.098 171.156 495.743 171.156C484.389 171.156 475.184 180.367 475.184 191.729C475.184 203.091 484.389 212.302 495.743 212.302Z" fill="#FFB8B8"/>
<path d="M474.814 181.621C484.552 187.57 495.531 191.19 506.896 192.199L503.514 188.145C505.976 189.056 508.567 189.57 511.191 189.67C513.811 189.629 516.556 188.62 518.043 186.46C518.707 185.387 519.101 184.169 519.192 182.91C519.283 181.652 519.068 180.389 518.567 179.232C517.536 176.922 515.932 174.915 513.907 173.402C510.318 170.56 506.082 168.652 501.578 167.846C497.073 167.041 492.439 167.363 488.088 168.784C485.104 169.677 482.432 171.392 480.377 173.734C478.428 176.14 474.675 178.284 475.673 181.216L474.814 181.621Z" fill="#2F2E41"/>
<path d="M499.2 165.018C492.716 158.438 484.869 153.36 476.212 150.142C470.655 148.082 464.606 146.809 458.796 147.979C452.987 149.149 447.492 153.171 445.872 158.875C444.546 163.54 445.915 168.562 447.972 172.952C450.028 177.343 452.774 181.415 454.438 185.969C456.135 190.616 456.645 195.614 455.923 200.509C455.2 205.404 453.267 210.04 450.299 213.998C447.332 217.955 443.423 221.109 438.929 223.171C434.435 225.234 429.497 226.141 424.563 225.809C430.272 226.575 435.533 229.26 441.113 230.689C446.693 232.117 453.278 232.02 457.424 228.02C461.811 223.788 461.899 216.907 461.687 210.813L460.741 183.636C460.58 179.016 460.443 174.248 462.108 169.936C463.773 165.624 467.73 161.848 472.349 161.887C475.851 161.917 478.949 164.039 481.757 166.132C484.565 168.225 487.537 170.458 491.024 170.77C494.511 171.081 498.493 168.498 498.232 165.005" fill="#2F2E41"/>
<path d="M403.635 235.451L450.974 236.569L457.832 287.21L414.114 288.191L403.635 235.451Z" fill="#E6E6E6"/>
<path d="M453.973 248.928C454.25 249.299 454.498 249.692 454.714 250.102L495.998 254.454L501.941 246.301L515.41 253.667L503.738 273.454L453.105 260.535C451.828 261.781 450.202 262.609 448.443 262.908C446.684 263.206 444.876 262.962 443.259 262.208C441.642 261.453 440.293 260.224 439.391 258.683C438.49 257.143 438.078 255.364 438.211 253.584C438.344 251.804 439.015 250.106 440.136 248.717C441.257 247.328 442.774 246.313 444.485 245.808C446.196 245.302 448.02 245.33 449.715 245.887C451.41 246.445 452.895 247.505 453.973 248.928Z" fill="#FFB8B8"/>
<path d="M510.468 261.183C509.953 261.182 509.444 261.076 508.972 260.87L498.218 256.212C497.302 255.814 496.581 255.068 496.213 254.139C495.846 253.21 495.862 252.173 496.257 251.255L504.571 232.038C505.072 230.876 505.797 229.824 506.705 228.943C507.613 228.062 508.685 227.368 509.861 226.902C511.037 226.435 512.293 226.206 513.558 226.225C514.823 226.245 516.071 226.514 517.232 227.017C518.392 227.519 519.443 228.246 520.323 229.155C521.203 230.064 521.895 231.138 522.36 232.315C522.825 233.492 523.054 234.749 523.033 236.015C523.012 237.28 522.742 238.529 522.239 239.69L513.926 258.908C513.633 259.583 513.15 260.158 512.536 260.562C511.922 260.966 511.203 261.182 510.468 261.183Z" fill="#0079FF"/>
<path d="M413.155 260.911H79.9991C78.5561 260.911 77.1721 261.485 76.1518 262.506C75.1314 263.527 74.5581 264.912 74.5581 266.356C74.5581 267.8 75.1314 269.185 76.1518 270.206C77.1721 271.227 78.5561 271.801 79.9991 271.801H89.6255V390.327C89.6255 391.771 90.1987 393.156 91.2191 394.177C92.2395 395.198 93.6234 395.772 95.0664 395.772C96.5095 395.772 97.8934 395.198 98.9138 394.177C99.9342 393.156 100.507 391.771 100.507 390.327V282.263L161.506 392.897C162.229 394.144 163.417 395.054 164.81 395.426C166.202 395.798 167.685 395.601 168.933 394.88C170.181 394.159 171.092 392.972 171.467 391.58C171.841 390.187 171.648 388.703 170.93 387.452L107.165 271.801H398.506V271.871L334.78 387.452C334.059 388.703 333.863 390.189 334.237 391.584C334.61 392.978 335.522 394.168 336.772 394.89C338.021 395.612 339.506 395.807 340.9 395.434C342.294 395.06 343.482 394.147 344.204 392.897L398.506 294.408V390.327C398.506 391.771 399.079 393.156 400.099 394.177C401.12 395.198 402.504 395.772 403.947 395.772C405.39 395.772 406.774 395.198 407.794 394.177C408.814 393.156 409.388 391.771 409.388 390.327V274.671L410.971 271.801H413.155C414.598 271.801 415.982 271.227 417.002 270.206C418.022 269.185 418.596 267.8 418.596 266.356C418.596 264.912 418.022 263.527 417.002 262.506C415.982 261.485 414.598 260.911 413.155 260.911Z" fill="#3F3D56"/>
<path d="M619.003 397H0.996707C0.732869 396.999 0.480103 396.894 0.293811 396.707C0.107519 396.52 0.00289917 396.267 0.00289917 396.003C0.00289917 395.739 0.107519 395.485 0.293811 395.298C0.480103 395.111 0.732869 395.006 0.996707 395.005H619.003C619.268 395.005 619.521 395.11 619.708 395.297C619.895 395.484 620 395.738 620 396.003C620 396.267 619.895 396.521 619.708 396.708C619.521 396.895 619.268 397 619.003 397Z" fill="#3F3D56"/>
</g>
<defs>
<clipPath id="clip0_37_2092">
<rect width="620" height="397" fill="white"/>
</clipPath>
</defs>
</svg>
