<svg width="57" height="56" viewBox="0 0 57 56" fill="none" xmlns="http://www.w3.org/2000/svg">
<rect x="0.907562" width="56" height="56" rx="8" fill="#F6F8FF"/>
<g clip-path="url(#clip0_227_1151)">
<path d="M25.5748 28C25.5748 26.1591 27.0667 24.6664 28.9076 24.6664C30.7484 24.6664 32.2412 26.1591 32.2412 28C32.2412 29.8409 30.7484 31.3336 28.9076 31.3336C27.0667 31.3336 25.5748 29.8409 25.5748 28ZM23.7727 28C23.7727 30.836 26.0715 33.1349 28.9076 33.1349C31.7436 33.1349 34.0425 30.836 34.0425 28C34.0425 25.164 31.7436 22.8651 28.9076 22.8651C26.0715 22.8651 23.7727 25.164 23.7727 28ZM33.0457 22.6616C33.0457 23.3239 33.5828 23.8619 34.246 23.8619C34.9084 23.8619 35.4463 23.3239 35.4463 22.6616C35.4463 21.9992 34.9092 21.462 34.246 21.462C33.5828 21.462 33.0457 21.9992 33.0457 22.6616ZM24.8672 36.1397C23.8922 36.0953 23.3623 35.933 23.0101 35.7956C22.5433 35.6139 22.2105 35.3974 21.8599 35.0477C21.5101 34.6979 21.2929 34.3651 21.1119 33.8982C20.9746 33.546 20.8122 33.0162 20.7678 32.0412C20.7194 30.9871 20.7097 30.6704 20.7097 28C20.7097 25.3296 20.7202 25.0137 20.7678 23.9588C20.8122 22.9838 20.9754 22.4548 21.1119 22.1018C21.2937 21.6349 21.5101 21.3021 21.8599 20.9515C22.2097 20.6018 22.5425 20.3845 23.0101 20.2036C23.3623 20.0662 23.8922 19.9039 24.8672 19.8595C25.9213 19.811 26.2379 19.8013 28.9076 19.8013C31.578 19.8013 31.8938 19.8118 32.9488 19.8595C33.9237 19.9039 34.4528 20.067 34.8058 20.2036C35.2727 20.3845 35.6055 20.6018 35.956 20.9515C36.3058 21.3013 36.5223 21.6349 36.704 22.1018C36.8413 22.454 37.0037 22.9838 37.0481 23.9588C37.0966 25.0137 37.1063 25.3296 37.1063 28C37.1063 30.6696 37.0966 30.9863 37.0481 32.0412C37.0037 33.0162 36.8405 33.546 36.704 33.8982C36.5223 34.3651 36.3058 34.6979 35.956 35.0477C35.6063 35.3974 35.2727 35.6139 34.8058 35.7956C34.4536 35.933 33.9237 36.0953 32.9488 36.1397C31.8946 36.1882 31.578 36.1979 28.9076 36.1979C26.2379 36.1979 25.9213 36.1882 24.8672 36.1397ZM24.7848 18.0606C23.7202 18.109 22.9932 18.2779 22.3575 18.525C21.7 18.7803 21.1426 19.1228 20.5861 19.6785C20.0303 20.2342 19.6879 20.7916 19.4326 21.4499C19.1854 22.0856 19.0166 22.8126 18.9681 23.8772C18.9189 24.9435 18.9076 25.2843 18.9076 28C18.9076 30.7157 18.9189 31.0565 18.9681 32.1228C19.0166 33.1874 19.1854 33.9144 19.4326 34.5501C19.6879 35.2076 20.0295 35.7658 20.5861 36.3215C21.1418 36.8772 21.6992 37.2189 22.3575 37.475C22.994 37.7221 23.7202 37.891 24.7848 37.9394C25.8518 37.9879 26.1919 38 28.9076 38C31.624 38 31.9641 37.9887 33.0303 37.9394C34.095 37.891 34.8219 37.7221 35.4576 37.475C36.1152 37.2189 36.6725 36.8772 37.229 36.3215C37.7848 35.7658 38.1265 35.2076 38.3825 34.5501C38.6297 33.9144 38.7993 33.1874 38.847 32.1228C38.8954 31.0557 38.9068 30.7157 38.9068 28C38.9068 25.2843 38.8954 24.9435 38.847 23.8772C38.7985 22.8126 38.6297 22.0856 38.3825 21.4499C38.1265 20.7924 37.7848 20.2351 37.229 19.6785C36.6733 19.1228 36.1152 18.7803 35.4585 18.525C34.8219 18.2779 34.095 18.1082 33.0311 18.0606C31.9649 18.0121 31.624 18 28.9084 18C26.1919 18 25.8518 18.0113 24.7848 18.0606Z" fill="#0079FF"/>
</g>
<defs>
<clipPath id="clip0_227_1151">
<rect width="20" height="20" fill="white" transform="translate(18.9076 18)"/>
</clipPath>
</defs>
</svg>
