<svg width="57" height="56" viewBox="0 0 57 56" fill="none" xmlns="http://www.w3.org/2000/svg">
<rect x="0.185394" width="56" height="56" rx="8" fill="#F6F8FF"/>
<g clip-path="url(#clip0_227_1148)">
<path d="M18.1854 20.3232C18.1854 19.6498 18.4106 19.0943 18.8611 18.6566C19.3115 18.2188 19.8971 18 20.6178 18C21.3257 18 21.8984 18.2155 22.336 18.6465C22.7864 19.0909 23.0116 19.67 23.0116 20.3838C23.0116 21.0303 22.7929 21.569 22.3553 22C21.9048 22.4444 21.3128 22.6667 20.5792 22.6667H20.5599C19.8521 22.6667 19.2794 22.4444 18.8418 22C18.4042 21.5555 18.1854 20.9966 18.1854 20.3232ZM18.4364 38V24.505H22.7221V38H18.4364ZM25.0966 38H29.3823V30.4646C29.3823 29.9932 29.4338 29.6296 29.5367 29.3737C29.7169 28.9158 29.9904 28.5286 30.3572 28.2121C30.724 27.8956 31.1841 27.7374 31.7375 27.7374C33.179 27.7374 33.8997 28.7542 33.8997 30.7879V38H38.1854V30.2626C38.1854 28.2693 37.7349 26.7576 36.834 25.7273C35.9331 24.697 34.7427 24.1818 33.2626 24.1818C31.6024 24.1818 30.3089 24.9293 29.3823 26.4242V26.4646H29.363L29.3823 26.4242V24.505H25.0966C25.1223 24.936 25.1352 26.2761 25.1352 28.5252C25.1352 30.7744 25.1223 33.9326 25.0966 38Z" fill="#0079FF"/>
</g>
<defs>
<clipPath id="clip0_227_1148">
<rect width="20" height="20" fill="white" transform="translate(18.1854 18)"/>
</clipPath>
</defs>
</svg>
