<svg width="577" height="674" viewBox="0 0 577 674" fill="none" xmlns="http://www.w3.org/2000/svg">
<g clip-path="url(#clip0_198_2007)">
<path d="M558.351 248.418H18.1549C13.3416 248.413 8.72707 246.496 5.32357 243.087C1.92008 239.678 0.00555778 235.057 0 230.237V18.1818C0.00555778 13.3614 1.92008 8.73998 5.32357 5.33143C8.72707 1.92289 13.3416 0.0055355 18.1549 -3.05176e-05H558.351C563.164 0.0055355 567.779 1.92289 571.182 5.33143C574.586 8.73998 576.5 13.3614 576.506 18.1818V230.237C576.5 235.057 574.586 239.678 571.182 243.087C567.779 246.496 563.164 248.413 558.351 248.418Z" fill="#F2F2F2"/>
<path d="M347.635 72.3098H130.518C129.276 72.3098 128.085 71.8157 127.207 70.9364C126.329 70.057 125.835 68.8643 125.835 67.6207C125.835 66.3771 126.329 65.1844 127.207 64.305C128.085 63.4256 129.276 62.9316 130.518 62.9316H347.635C348.877 62.9316 350.068 63.4256 350.946 64.305C351.824 65.1844 352.317 66.3771 352.317 67.6207C352.317 68.8643 351.824 70.057 350.946 70.9364C350.068 71.8157 348.877 72.3098 347.635 72.3098Z" fill="#E6E6E6"/>
<path d="M457.544 122.339H130.518C129.276 122.339 128.085 121.845 127.207 120.966C126.329 120.086 125.835 118.894 125.835 117.65C125.835 116.407 126.329 115.214 127.207 114.334C128.085 113.455 129.276 112.961 130.518 112.961H457.544C458.786 112.961 459.977 113.455 460.855 114.334C461.733 115.214 462.226 116.407 462.226 117.65C462.226 118.894 461.733 120.086 460.855 120.966C459.977 121.845 458.786 122.339 457.544 122.339Z" fill="#E6E6E6"/>
<path d="M457.544 172.369H130.518C129.276 172.369 128.085 171.875 127.207 170.995C126.329 170.116 125.835 168.923 125.835 167.68C125.835 166.436 126.329 165.243 127.207 164.364C128.085 163.485 129.276 162.991 130.518 162.991H457.544C458.786 162.991 459.977 163.485 460.855 164.364C461.733 165.243 462.226 166.436 462.226 167.68C462.226 168.923 461.733 170.116 460.855 170.995C459.977 171.875 458.786 172.369 457.544 172.369Z" fill="#E6E6E6"/>
<path d="M457.544 172.369H130.518C129.276 172.369 128.085 171.875 127.207 170.995C126.329 170.116 125.835 168.923 125.835 167.68C125.835 166.436 126.329 165.243 127.207 164.364C128.085 163.485 129.276 162.991 130.518 162.991H457.544C458.786 162.991 459.977 163.485 460.855 164.364C461.733 165.243 462.226 166.436 462.226 167.68C462.226 168.923 461.733 170.116 460.855 170.995C459.977 171.875 458.786 172.369 457.544 172.369Z" fill="#E6E6E6"/>
<path d="M324.724 128.081C324.776 129.494 325.137 130.878 325.78 132.135C326.424 133.393 327.336 134.494 328.45 135.361C329.565 136.228 330.856 136.839 332.232 137.153C333.608 137.466 335.036 137.473 336.416 137.173L354.272 166.51L361.871 150.359L343.75 124.977C343.094 122.69 341.623 120.723 339.616 119.45C337.609 118.176 335.205 117.684 332.86 118.066C330.515 118.449 328.391 119.68 326.892 121.525C325.392 123.371 324.621 125.704 324.724 128.081Z" fill="#FFB6B6"/>
<path d="M458.72 212.157L397.186 178.73L377.776 160.493C377.776 160.493 369.338 158.23 372.444 155.483C375.55 152.735 366.699 150.085 366.699 150.085L356.28 140.295L341.474 150.787L345.759 157.439C345.759 157.439 345.464 168.451 351.488 166.332C357.512 164.214 356.006 173.347 356.006 173.347L391.961 229.164L458.72 212.157Z" fill="#3F3D56"/>
<path d="M277.077 180.663C310.272 180.663 337.181 153.714 337.181 120.469C337.181 87.2253 310.272 60.2755 277.077 60.2755C243.882 60.2755 216.972 87.2253 216.972 120.469C216.972 153.714 243.882 180.663 277.077 180.663Z" fill="#0079FF"/>
<path d="M458.911 650.597H446.414L440.466 602.321H458.911V650.597Z" fill="#FFB6B6"/>
<path d="M465.508 672.282H456.545L454.946 663.808L450.848 672.282H427.078C425.939 672.282 424.829 671.918 423.911 671.242C422.993 670.565 422.316 669.613 421.976 668.524C421.637 667.434 421.655 666.265 422.026 665.186C422.398 664.107 423.104 663.176 424.042 662.528L443.024 649.398V640.831L462.99 642.025L465.508 672.282Z" fill="#2F2E41"/>
<path d="M358.957 650.597H346.459L340.512 602.321H358.957V650.597Z" fill="#FFB6B6"/>
<path d="M365.554 672.282H356.591L354.991 663.808L350.894 672.282H327.124C325.984 672.282 324.875 671.918 323.957 671.242C323.039 670.565 322.361 669.613 322.022 668.524C321.683 667.434 321.701 666.265 322.072 665.186C322.444 664.107 323.15 663.176 324.088 662.528L343.07 649.398V640.831L363.036 642.025L365.554 672.282Z" fill="#2F2E41"/>
<path d="M445.651 285.493H382.573V357.411H445.651V285.493Z" fill="#FFB6B6"/>
<path d="M384.028 320.966L373.354 333.601L354.916 372.475L308.456 483.18L298.631 506.593L306.566 547.981C306.566 547.981 307.85 577.139 307.85 581.912C307.85 591.631 315.966 597.016 315.966 597.016L321.921 628.076L379.661 625.646C379.661 625.646 377.647 591.41 365.553 582.773C353.46 574.137 347.901 529.129 347.901 529.129L341.33 509.16L405.378 433.125L405.791 459.703L405.991 472.568C405.991 472.568 396.612 556.239 407.545 572.477C418.479 588.715 407.768 586.805 407.768 586.805L408.289 620.301L476.704 620.787L461.611 524.351C461.611 524.351 453.947 518.291 458.047 512.199C462.148 506.107 454.073 498.646 454.073 498.646L457.695 423.361C457.695 423.361 453.685 410.357 458.401 408.667C463.118 406.976 459.021 395.794 459.021 395.794L459.722 381.222L445.65 336.03L384.028 320.966Z" fill="#2F2E41"/>
<path d="M446.621 285.493L453.414 265.084L458.266 258.281L460.207 238.844C460.207 186.363 448.518 195.102 448.518 195.102L441.769 176.644L410.715 175.672L390.821 194.624L374.324 200.455L367.864 234.072L379.661 269.943L382.573 289.381C377.019 299.648 377.489 294.792 382.087 302.501L436.916 317.565C456.325 324.368 456.325 306.874 452.433 302.501C448.541 298.128 446.621 285.493 446.621 285.493Z" fill="#3F3D56"/>
<path d="M422.23 169.149C438.129 169.149 451.018 156.241 451.018 140.318C451.018 124.395 438.129 111.487 422.23 111.487C406.331 111.487 393.442 124.395 393.442 140.318C393.442 156.241 406.331 169.149 422.23 169.149Z" fill="#FFB6B6"/>
<path d="M460.663 178.802C460.934 179.26 461.099 179.774 461.144 180.305C461.189 180.836 461.115 181.37 460.925 181.868C460.736 182.366 460.437 182.814 460.05 183.18C459.664 183.546 459.2 183.82 458.693 183.982C454.831 185.265 452.453 189.006 449.678 192C446.912 194.983 442.458 197.462 438.925 195.43C435.403 193.409 435.16 188.248 432.21 185.449C429.338 182.728 424.563 183.059 421.186 185.129L421.085 185.191C420.502 185.572 419.821 185.773 419.125 185.769C418.429 185.766 417.749 185.559 417.17 185.173C416.59 184.787 416.136 184.24 415.864 183.598C415.592 182.957 415.514 182.249 415.639 181.564C416.822 175.262 418.005 168.96 419.187 162.659C416.081 170.153 411.571 176.981 405.902 182.777C404.34 184.582 402.361 185.976 400.137 186.839C398.119 187.481 396.159 185.391 394.198 185.77C399.07 181.504 415.451 154.155 412.52 135.874C409.075 136.263 405.63 136.652 402.185 137.041C401.812 135.408 401.015 133.903 399.875 132.677C400.015 134.266 399.813 135.867 399.283 137.371C397.847 137.536 396.401 137.692 394.965 137.857C392.966 138.081 390.792 138.275 389.075 137.225C386.212 135.476 386.124 131.336 386.94 128.07C389.327 118.575 396.566 110.635 405.426 106.476C414.286 102.326 416.906 111.568 426.242 108.614C444.68 102.783 458.809 112.754 463.788 131.258C467.97 146.779 464.933 163.252 460.663 178.802Z" fill="#2F2E41"/>
<path d="M540.361 672.91H505.111L504.959 672.634C504.509 671.816 504.073 670.948 503.667 670.057C500.036 662.272 498.501 653.368 497.147 645.513L496.127 639.591C496.004 638.874 496.097 638.136 496.394 637.473C496.692 636.809 497.181 636.249 497.798 635.865C498.415 635.481 499.133 635.29 499.859 635.316C500.585 635.343 501.287 635.586 501.874 636.015C507.231 639.918 512.59 643.819 517.951 647.715C519.981 649.194 522.3 650.906 524.52 652.756C524.734 651.714 524.958 650.669 525.182 649.639C525.337 648.927 525.7 648.278 526.225 647.774C526.75 647.271 527.413 646.935 528.13 646.811C528.846 646.687 529.583 646.78 530.247 647.078C530.91 647.376 531.47 647.865 531.854 648.484L535.978 655.12C538.986 659.966 541.641 664.741 541.1 669.892C541.103 669.954 541.098 670.017 541.086 670.079C540.978 670.925 540.777 671.756 540.488 672.558L540.361 672.91Z" fill="#F0F0F0"/>
<path d="M575.742 673.673L240.774 674C240.439 673.998 240.119 673.864 239.883 673.627C239.647 673.389 239.515 673.068 239.515 672.733C239.515 672.399 239.647 672.077 239.883 671.84C240.119 671.603 240.439 671.468 240.774 671.467L575.742 671.14C576.076 671.142 576.396 671.276 576.632 671.513C576.868 671.75 577 672.072 577 672.406C577 672.741 576.868 673.063 576.632 673.3C576.396 673.537 576.076 673.671 575.742 673.673Z" fill="#CACACA"/>
<path d="M271.613 201.486L234.768 170.325C233.508 169.257 232.723 167.733 232.585 166.086C232.446 164.44 232.965 162.805 234.028 161.542L240.81 153.499C241.876 152.238 243.398 151.452 245.042 151.313C246.686 151.174 248.318 151.694 249.58 152.759L286.425 183.921C287.684 184.988 288.469 186.512 288.608 188.159C288.747 189.806 288.227 191.44 287.164 192.704L280.383 200.746C279.317 202.007 277.795 202.793 276.151 202.932C274.507 203.071 272.875 202.551 271.613 201.486Z" fill="#3F3D56"/>
<path d="M236.701 162.19C236.128 162.871 235.848 163.752 235.923 164.639C235.998 165.526 236.421 166.348 237.099 166.923L273.945 198.085C274.624 198.658 275.504 198.938 276.39 198.864C277.276 198.789 278.096 198.365 278.671 197.686L285.452 189.643C286.025 188.963 286.305 188.082 286.23 187.194C286.155 186.307 285.732 185.486 285.054 184.91L248.208 153.749C247.528 153.175 246.649 152.895 245.763 152.97C244.877 153.045 244.057 153.468 243.482 154.148L236.701 162.19Z" fill="white"/>
<path d="M258.331 174.304C258.204 174.483 258.036 174.63 257.841 174.733C257.647 174.836 257.431 174.892 257.211 174.897L251.422 175.03C251.236 175.034 251.051 175.002 250.878 174.935C250.704 174.867 250.546 174.766 250.411 174.638C250.277 174.509 250.169 174.355 250.094 174.185C250.019 174.014 249.978 173.831 249.974 173.644C249.969 173.458 250.002 173.273 250.069 173.099C250.136 172.925 250.237 172.767 250.365 172.632C250.494 172.497 250.648 172.389 250.818 172.314C250.988 172.239 251.171 172.198 251.357 172.194L255.145 172.106L251.415 162.25C251.283 161.899 251.295 161.509 251.45 161.166C251.604 160.824 251.888 160.557 252.239 160.424C252.589 160.291 252.979 160.302 253.321 160.456C253.663 160.61 253.93 160.894 254.064 161.245L258.504 172.976C258.584 173.188 258.612 173.417 258.586 173.642C258.56 173.867 258.481 174.083 258.354 174.271L258.331 174.304Z" fill="#0079FF"/>
<path d="M259.074 176.781C260.47 176.986 261.805 177.496 262.983 178.273C264.162 179.051 265.156 180.078 265.895 181.282C266.634 182.486 267.101 183.838 267.262 185.242C267.423 186.646 267.275 188.069 266.828 189.409L294.005 210.375L277.148 216.185L253.924 195.384C251.725 194.483 249.933 192.805 248.887 190.668C247.841 188.532 247.614 186.085 248.248 183.792C248.883 181.499 250.336 179.518 252.331 178.226C254.326 176.934 256.726 176.42 259.074 176.781Z" fill="#FFB6B6"/>
<path d="M400.566 187.147L330.983 229.993C330.983 229.993 302.928 219.597 308.411 214.785C313.893 209.972 296.439 206.719 296.439 206.719L277.157 193.727L265.968 206.75C265.968 206.75 268.007 227.903 271.475 224.24C274.944 220.578 280.129 230.583 280.129 230.583C280.129 230.583 281.662 241.755 291.536 238.944C301.411 236.132 327.908 265.602 327.908 265.602L413.544 233.616L400.566 187.147Z" fill="#3F3D56"/>
<path d="M274.963 144.616C274.156 144.616 273.36 144.428 272.639 144.066C271.917 143.705 271.29 143.18 270.806 142.534L258.062 125.516C257.653 124.97 257.355 124.347 257.185 123.685C257.016 123.023 256.979 122.335 257.075 121.658C257.172 120.982 257.4 120.331 257.748 119.743C258.096 119.155 258.556 118.641 259.101 118.231C260.204 117.403 261.59 117.047 262.954 117.243C263.629 117.339 264.279 117.568 264.866 117.916C265.454 118.265 265.967 118.725 266.376 119.272L274.714 130.404L296.128 98.2362C296.892 97.0878 298.081 96.2906 299.432 96.02C300.783 95.7493 302.187 96.0273 303.333 96.7929C304.48 97.5585 305.276 98.7489 305.546 100.102C305.817 101.456 305.539 102.861 304.775 104.01L279.287 142.298C278.826 142.991 278.205 143.562 277.478 143.965C276.751 144.368 275.938 144.591 275.107 144.614C275.059 144.615 275.011 144.616 274.963 144.616Z" fill="white"/>
</g>
<defs>
<clipPath id="clip0_198_2007">
<rect width="577" height="674" fill="white"/>
</clipPath>
</defs>
</svg>
