<svg width="24" height="24" viewBox="0 0 24 24" fill="none" xmlns="http://www.w3.org/2000/svg">
<path id="Combined Shape" fill-rule="evenodd" clip-rule="evenodd" d="M10.5831 0C4.74765 0 0 4.74609 0 10.5797C0 16.4133 4.7477 21.1594 10.5831 21.1594C13.1844 21.1594 15.5695 20.2163 17.4143 18.6542L22.5207 23.747C22.6902 23.9157 22.9111 24 23.1326 24C23.3555 24 23.5782 23.9145 23.7476 23.7438C24.0854 23.4032 24.0839 22.8528 23.7445 22.514L18.6443 17.4275C20.2165 15.5807 21.1663 13.189 21.1663 10.5797C21.1663 4.74609 16.4186 0 10.5831 0ZM16.8933 16.771C18.4623 15.1749 19.4314 12.9881 19.4313 10.5796C19.4313 5.70481 15.4621 1.73901 10.5831 1.73901C5.70418 1.73901 1.73494 5.70481 1.73494 10.5796C1.73494 15.4541 5.70418 19.4202 10.5831 19.4202C12.9852 19.4202 15.1668 18.4588 16.7627 16.9011C16.7809 16.8786 16.8004 16.8569 16.8211 16.836C16.8442 16.8127 16.8683 16.7911 16.8933 16.771Z" fill="#0079FF"/>
</svg>
