<svg width="37" height="35" viewBox="0 0 37 35" fill="none" xmlns="http://www.w3.org/2000/svg">
<path fill-rule="evenodd" clip-rule="evenodd" d="M2.81058 26.6571H10.907C10.9808 26.6571 11.0539 26.6716 11.1221 26.7C11.1903 26.7283 11.2522 26.7699 11.3043 26.8222C11.3564 26.8745 11.3977 26.9367 11.4258 27.005C11.4539 27.0734 11.4683 27.1466 11.468 27.2205V33.8765H13.3408V18.3329C13.3409 18.1839 13.4 18.0411 13.5052 17.9358C13.6104 17.8306 13.7531 17.7714 13.9018 17.7714H21.9982C22.147 17.7714 22.2896 17.8306 22.3948 17.9358C22.5 18.0411 22.5592 18.1839 22.5593 18.3329V33.8765H24.432V9.44723C24.4321 9.29829 24.4913 9.15549 24.5965 9.05021C24.7017 8.94494 24.8443 8.8858 24.9931 8.8858H28.4802V5.89125V0.561599C28.4803 0.467072 28.5042 0.374098 28.5497 0.291274C28.5952 0.208449 28.6608 0.138448 28.7405 0.0877409C28.8202 0.0370341 28.9113 0.00725895 29.0055 0.00116841C29.0997 -0.00492213 29.1939 0.0128685 29.2794 0.0528955L36.6313 2.6998C36.7394 2.73904 36.8327 2.81063 36.8987 2.90485C36.9646 2.99908 37 3.11135 37 3.22642C37 3.34149 36.9646 3.45377 36.8987 3.54799C36.8327 3.64221 36.7394 3.71381 36.6313 3.75304L29.6023 6.28379V8.8858H33.0895C33.2382 8.8858 33.3808 8.94494 33.486 9.05021C33.5912 9.15549 33.6504 9.29829 33.6505 9.44723V33.8765H35.3563C35.4312 33.8745 35.5058 33.8875 35.5756 33.9148C35.6454 33.9421 35.709 33.9832 35.7627 34.0355C35.8165 34.0879 35.8592 34.1505 35.8883 34.2196C35.9175 34.2888 35.9325 34.3631 35.9325 34.4382C35.9325 34.5132 35.9175 34.5875 35.8883 34.6567C35.8592 34.7258 35.8165 34.7884 35.7627 34.8408C35.709 34.8931 35.6454 34.9342 35.5756 34.9615C35.5058 34.9888 35.4312 35.0018 35.3563 34.9998H0.545851C0.399737 34.9958 0.260937 34.9349 0.158991 34.83C0.0570437 34.7251 0 34.5845 0 34.4382C0 34.2918 0.0570437 34.1512 0.158991 34.0463C0.260937 33.9414 0.399737 33.8805 0.545851 33.8765H2.24954V27.2205C2.24965 27.0716 2.3088 26.9288 2.41401 26.8235C2.51921 26.7183 2.66185 26.6591 2.81058 26.6591V26.6571ZM29.6023 1.35822V5.09503L34.7911 3.22663L29.6023 1.35822ZM26.5824 5.16341H21.9982C21.8495 5.16341 21.7069 5.22256 21.6018 5.32785C21.4967 5.43314 21.4376 5.57594 21.4376 5.72484V14.049H10.9078C10.7593 14.0493 10.6169 14.1085 10.5119 14.2138C10.407 14.319 10.348 14.4617 10.348 14.6105V22.9367H2.81058C2.73565 22.9347 2.66107 22.9477 2.59126 22.975C2.52144 23.0023 2.45779 23.0434 2.40408 23.0957C2.35037 23.1481 2.30767 23.2107 2.27852 23.2798C2.24937 23.349 2.23435 23.4233 2.23435 23.4984C2.23435 23.5734 2.24937 23.6477 2.27852 23.7169C2.30767 23.786 2.35037 23.8486 2.40408 23.901C2.45779 23.9533 2.52144 23.9944 2.59126 24.0217C2.66107 24.049 2.73565 24.062 2.81058 24.06H10.907C11.0558 24.06 11.1985 24.0008 11.3037 23.8954C11.4089 23.7901 11.468 23.6472 11.468 23.4982V15.1723H21.9978C22.1466 15.1723 22.2893 15.1131 22.3945 15.0077C22.4998 14.9024 22.5589 14.7595 22.5589 14.6105V6.28668H26.582C26.7281 6.28271 26.8669 6.2218 26.9688 6.11691C27.0708 6.01201 27.1278 5.87142 27.1278 5.72504C27.1278 5.57867 27.0708 5.43807 26.9688 5.33318C26.8669 5.22828 26.7285 5.16737 26.5824 5.16341ZM3.37162 33.8765H10.348V27.7803H3.37162V33.8765ZM14.4624 33.8765H21.4376V18.8947H14.4612V33.8765H14.4624ZM25.5537 33.8765H32.5284V10.0091H25.5537V33.8765Z" fill="#0079FF"/>
</svg>
